<?xml version="1.0" encoding="UTF-8"?>
<svg xmlns="http://www.w3.org/2000/svg" width="256" height="256" viewBox="0 0 256 256">
  <rect width="256" height="256" fill="#111318"/>
  <g transform="translate(28 28) scale(2)">
    
  <path fill="#f7f8fc" fill-rule="evenodd" d="M10.39,4.00L10.39,95.79L89.40,95.79L88.78,4.41L89.40,4.00Z M48.76,85.89L48.97,86.10L48.97,94.35L48.76,94.56L41.54,94.56L41.34,94.35L41.54,93.94L44.02,92.49L46.70,89.81L48.14,87.54Z M50.21,67.33L87.75,67.12L87.96,94.14L87.54,94.56L50.41,94.56L50.00,94.14Z M11.84,67.33L36.39,67.12L39.27,67.74L41.54,68.77L43.81,70.42L46.08,72.90L47.52,75.37L48.56,79.09L48.56,82.80L46.91,87.54L45.26,89.81L42.99,91.87L39.69,93.73L37.42,94.35L12.04,94.56Z M50.21,45.05L87.75,44.84L87.96,65.88L50.41,66.09L50.00,65.68Z M11.84,45.05L12.04,44.84L35.97,44.84L39.07,45.67L41.96,47.32L44.02,49.38L45.26,51.44L46.08,54.13L46.08,57.01L45.46,59.28L44.43,61.14L42.37,63.41L38.86,65.47L36.59,66.09L12.04,66.09L11.84,65.88Z M48.97,32.47L49.17,34.12L48.97,34.32L48.97,75.37L48.76,75.58L47.32,72.69L45.05,70.01L42.57,68.15L39.27,66.50L41.75,65.26L43.40,64.03L45.05,62.17L46.29,60.11L47.11,57.43L47.11,53.92L46.49,51.65L45.05,48.97L43.40,47.11L41.13,45.46L37.00,43.81L41.13,41.75L43.61,39.89L46.29,37.00L47.52,35.15L48.56,32.67Z M12.04,5.65L30.82,5.65L34.12,6.27L37.62,7.51L40.51,9.16L45.26,13.49L46.91,15.96L48.56,19.88L49.17,25.87L48.56,29.99L47.73,32.26L46.08,35.35L42.78,39.07L38.04,42.16L33.09,43.61L11.84,43.61Z M36.18,5.65L87.54,5.44L87.96,5.86L87.96,43.61L50.41,43.81L50.00,43.40L50.21,22.98L48.97,17.82L46.49,13.28L43.61,10.19L40.30,7.71Z"/>


  </g>
</svg>