<svg xmlns="http://www.w3.org/2000/svg" viewBox="0 0 100 100" fill="none"><path fill="currentColor" fill-rule="evenodd" d="M7.00,0.00L7.00,99.77L92.33,99.77L92.55,0.00Z M48.53,89.39L48.76,89.62L48.76,98.19L48.31,98.65L42.21,98.65L41.99,98.42L40.63,98.65L40.41,98.42L40.63,97.97L43.34,96.39L46.50,93.23Z M50.11,68.85L50.34,68.62L91.20,68.62L91.42,68.85L91.42,98.19L90.74,98.65L50.56,98.65L50.11,98.19L49.89,95.94L50.11,95.26L50.11,89.39L49.89,89.16L50.11,88.71Z M8.13,68.85L8.35,68.62L34.99,68.62L38.15,69.30L40.18,70.20L41.99,71.33L44.70,73.81L46.73,76.75L47.86,79.68L48.31,81.72L48.31,85.55L47.86,87.58L46.50,90.97L44.70,93.45L42.21,95.71L38.60,97.74L36.12,98.42L33.86,98.65L8.80,98.65L8.13,98.19Z M50.11,44.47L50.34,44.24L91.20,44.24L91.42,44.47L91.42,67.27L91.20,67.49L50.34,67.49L49.89,67.04L50.11,66.82L49.89,66.59L50.11,66.37Z M8.13,44.47L8.35,44.24L34.31,44.24L37.92,45.15L41.31,47.18L43.12,48.98L44.70,51.47L45.60,54.40L45.60,57.56L44.70,60.50L43.12,62.98L40.63,65.24L38.15,66.59L34.99,67.49L8.35,67.49L8.13,67.27Z M48.76,30.70L48.98,31.15L48.76,31.38L48.76,77.65L48.53,77.88L46.95,74.72L44.47,71.78L42.21,69.98L38.15,67.95L40.18,67.04L42.66,65.24L44.70,62.98L45.82,60.95L46.73,58.01L46.73,54.18L45.82,51.02L44.47,48.76L42.44,46.50L40.18,44.92L35.67,43.12L40.18,40.86L42.89,38.83L45.82,35.67L47.18,33.63L48.31,30.93Z M8.35,1.35L28.67,1.35L32.51,2.03L35.21,2.93L39.50,5.19L44.47,9.71L46.50,12.64L47.86,15.58L48.76,19.19L48.98,23.25L48.53,26.86L47.40,30.47L44.92,34.76L41.99,37.92L36.79,41.31L31.38,42.89L29.35,43.12L8.13,42.89Z M34.99,1.35L90.97,1.13L91.42,1.58L91.42,42.89L50.34,43.12L50.11,20.09L48.98,15.12L46.05,9.71L42.66,6.09L39.28,3.61L35.21,1.81Z"/></svg>