<svg xmlns="http://www.w3.org/2000/svg" width="320" height="320" viewBox="0 0 80 80">
  <rect width="80" height="80" fill="#0b0c10"/>
  <g fill="#f4f5f8"><rect x="8" y="12" width="12" height="56" />
<rect x="34" y="12" width="12" height="56" />
<rect x="20" y="12" width="14" height="12" />
<rect x="20" y="56" width="14" height="12" />
<polygon points="46,12 72,12 66,24 46,24" />
<polygon points="46,30 64,30 60,42 46,42" />
<path
        fillRule="evenodd"
        d="M46 42h22c7 0 12 4.5 12 10.5S75 63 68 63H46V42Zm16 8H54v5h8c2 0 3.5-1.2 3.5-2.5S70 50 68 50h-6z"
      />
<path
        fillRule="evenodd"
        d="M46 55h24c7 0 13 4.8 13 11.5S77 78 70 78H20v-11h48c2.5 0 4.5-1.5 4.5-3.5S70.5 60 68 60H46V55z"
      /></g>
</svg>