<svg xmlns="http://www.w3.org/2000/svg" viewBox="0 0 670 155" role="img" aria-label="dennisbf."><path id="wordmark" fill-rule="evenodd" fill="#201b29" d="M 627.944 6.934 L 611.388 7.500 603.786 11.259 C 595.376 15.418, 587.706 22.823, 584.153 30.214 C 583.020 32.571, 576.192 54.300, 568.979 78.500 C 561.767 102.700, 554.151 128.248, 552.054 135.273 L 548.243 148.045 565.805 147.773 L 583.368 147.500 594.435 109.500 C 600.522 88.600, 605.866 70.938, 606.310 70.250 C 606.875 69.376, 610.386 69, 617.971 69 L 628.824 69 632.838 57 L 636.852 45 625.301 45 L 613.750 45 614.393 41.786 C 616.278 32.361, 624.260 27.407, 639.218 26.378 L 648.936 25.709 651.830 18.105 C 653.422 13.922, 655.042 9.488, 655.430 8.250 C 656.230 5.695, 659.536 5.853, 627.944 6.934 M 100.319 11.750 C 99.450 13.813, 96.359 22.025, 93.449 30 L 88.159 44.500 70.830 45 C 54.174 45.481, 53.318 45.607, 48.834 48.243 C 44.113 51.018, 37.918 57.420, 35.522 62 C 34.802 63.375, 28.765 79.105, 22.107 96.955 C 9.211 131.526, 8.087 136.400, 11.494 142.989 C 14.597 148.988, 14.666 149, 46.907 149 C 74.803 149, 76.599 148.888, 80.711 146.898 C 83.100 145.741, 86.215 143.273, 87.634 141.413 C 89.200 139.360, 94.840 124.765, 101.988 104.266 C 108.464 85.695, 117.245 60.825, 121.500 49 C 125.756 37.175, 130.730 23.113, 132.553 17.750 L 135.868 8 118.883 8 L 101.898 8 100.319 11.750 M 505 8.374 C 505 8.874, 496.803 35.333, 482.501 81 C 464.257 139.251, 462.035 146.443, 462.017 147.299 C 462.008 147.738, 477.413 147.963, 496.250 147.799 C 535.168 147.459, 534.517 147.587, 542.710 138.699 C 548.604 132.305, 548.802 131.804, 559.517 96.151 C 570.029 61.173, 570.647 57.082, 566.319 51.176 C 562.404 45.834, 559.051 45.003, 541.397 45.002 L 525.294 45 530.513 26.500 L 535.732 8 520.366 8 C 511.915 8, 505 8.168, 505 8.374 M 382.799 21.250 C 380.798 27.438, 378.870 33.513, 378.514 34.750 L 377.865 37 394.324 37 C 410.549 37, 410.792 36.968, 411.380 34.750 C 411.709 33.513, 413.514 27.438, 415.392 21.250 L 418.806 10 402.621 10 L 386.435 10 382.799 21.250 M 431.732 45.037 C 424.716 46.217, 418.773 49.467, 413.690 54.900 C 402.664 66.688, 397.618 87.624, 404.106 94.662 C 408.183 99.083, 411.851 100, 425.468 100 C 437.167 100, 438 100.128, 438 101.923 C 438 107.486, 428.764 113.299, 412.500 117.970 C 406.450 119.708, 399.631 121.956, 397.346 122.966 C 393.849 124.512, 371.060 139.939, 363.115 146.139 C 360.777 147.964, 361.389 147.999, 394.615 147.967 C 432.237 147.931, 432.941 147.832, 444.584 140.944 C 460.116 131.754, 471.945 112.881, 471.988 97.218 C 472.023 84.588, 463.747 79, 445.010 79 C 440.669 79, 436.834 78.540, 436.487 77.979 C 435.469 76.332, 439.279 69.626, 442 68.273 C 443.713 67.421, 450.228 67.025, 462.700 67.015 L 480.900 67 484.450 56.018 C 486.402 49.979, 488 44.804, 488 44.518 C 488 43.685, 436.973 44.156, 431.732 45.037 M 139.792 46.370 C 129.602 49.182, 122.865 56.516, 117.836 70.272 C 105.376 104.354, 98 127.419, 98.002 132.292 C 98.004 139.113, 100.492 143.902, 105.500 146.724 L 109.500 148.977 159.929 148.739 L 210.358 148.500 221.668 114.500 C 227.888 95.800, 233.694 78.362, 234.569 75.750 C 236.109 71.153, 236.288 71, 240.112 71 C 242.352 71, 244.269 71.541, 244.539 72.250 C 244.801 72.938, 239.387 90.368, 232.508 110.985 C 225.629 131.602, 220 148.589, 220 148.735 C 220 149.504, 254.970 148.857, 255.451 148.079 C 255.764 147.573, 261.864 129.236, 269.008 107.329 C 283.032 64.321, 283.914 60.037, 280.173 53.062 C 276.806 46.785, 275.013 46.393, 246.106 45.617 C 231.798 45.233, 217.868 45.214, 215.148 45.575 L 210.204 46.231 196.869 84.615 L 183.535 123 164.267 123 C 153.670 123, 145.015 122.662, 145.034 122.250 C 145.052 121.838, 148.765 119.025, 153.284 116 C 167.891 106.223, 184.454 93.456, 188.180 89.102 C 192.632 83.902, 200.002 64.948, 199.996 58.715 C 199.991 53.178, 197.075 48.488, 192.827 47.187 C 187.286 45.489, 145.327 44.843, 139.792 46.370 M 293.211 46.674 C 291.566 49.867, 260 146.272, 260 148.103 C 260 148.670, 266.691 148.939, 276.711 148.774 L 293.421 148.500 301.988 121.939 C 306.700 107.331, 312.266 89.893, 314.359 83.189 L 318.163 71 322.582 71 C 326.222 71, 327 71.327, 327 72.860 C 327 74.682, 304.672 145.104, 303.485 147.024 C 303.102 147.644, 309.101 148, 319.941 148 C 329.323 148, 337.337 148.042, 337.750 148.093 C 338.163 148.144, 344.232 130.031, 351.238 107.843 C 365.286 63.355, 366.047 59.369, 361.737 52.898 C 357.562 46.629, 355.719 46.276, 323.326 45.525 C 295.708 44.885, 294.101 44.946, 293.211 46.674 M 369.622 62.250 C 366.609 71.737, 360.454 91.425, 355.944 106 C 351.435 120.575, 346.685 135.875, 345.388 140 C 344.091 144.125, 343.023 147.613, 343.015 147.750 C 343.007 147.887, 345.676 148, 348.946 148 C 354.842 148, 355.009 147.919, 368.888 138.260 C 381.729 129.324, 382.968 128.190, 383.910 124.510 C 384.667 121.550, 401.987 64.672, 407.588 46.750 C 408.094 45.132, 406.890 45, 391.618 45 L 375.102 45 369.622 62.250 M 67.756 71.250 C 65.905 72.672, 47.768 120.816, 48.585 122.138 C 49.257 123.225, 57.069 123.243, 58.774 122.161 C 59.960 121.408, 78 73.486, 78 71.088 C 78 69.579, 69.760 69.710, 67.756 71.250 M 518.487 71.250 C 517.852 73.010, 509.555 101.274, 507.551 108.500 C 506.636 111.800, 505.657 115.287, 505.376 116.250 C 504.926 117.791, 505.651 118, 511.454 118 C 517.340 118, 518.144 117.760, 518.987 115.750 C 521.749 109.169, 532.153 72.841, 531.651 71.533 C 530.895 69.562, 519.186 69.311, 518.487 71.250 M 152.210 72.250 C 151.290 73.362, 149.336 78.688, 140.384 104.484 C 137.329 113.287, 138.338 112.259, 149.832 94.865 C 158.809 81.281, 163 74.015, 163 72.040 C 163 70.558, 153.457 70.744, 152.210 72.250"/><path id="period" fill-rule="evenodd" fill="#8760aa" d="M 602.630 129.514 C 600.084 138.597, 598 146.472, 598 147.014 C 598 147.623, 604.483 148, 614.961 148 L 631.923 148 633.049 143.750 C 633.668 141.412, 635.711 134.021, 637.588 127.324 C 639.464 120.627, 641 114.664, 641 114.074 C 641 113.351, 635.483 113, 624.130 113 L 607.260 113 602.630 129.514"/></svg>