<svg xmlns="http://www.w3.org/2000/svg" viewBox="0 0 400 220" fill="none" role="img" aria-label="mina">
  <!-- Rebuilt mina lockup: rounded geometric wordmark drawn as stroked skeleton paths.
       Everything white except the coral heart. -->
  <g stroke="#ffffff" stroke-width="27" stroke-linecap="round" stroke-linejoin="round">
    <!-- m -->
    <path d="M30 193 V126" />
    <path d="M30 148 Q30 121 55 121 Q80 121 80 148 V193" />
    <path d="M80 148 Q80 121 105 121 Q130 121 130 148 V193" />
    <!-- i -->
    <path d="M172 193 V126" />
    <!-- n -->
    <path d="M214 193 V126" />
    <path d="M214 148 Q214 121 239 121 Q264 121 264 148 V193" />
    <!-- a -->
    <circle cx="330" cy="157" r="36" />
    <path d="M366 193 V126" />
  </g>
  <!-- Speech bubble above the i -->
  <path
    d="M150 14 h60 a16 16 0 0 1 16 16 v32 a16 16 0 0 1 -16 16 h-22 l-14 14 v-14 h-24 a16 16 0 0 1 -16 -16 V30 a16 16 0 0 1 16 -16 z"
    stroke="#ffffff"
    stroke-width="11"
    stroke-linejoin="round"
    fill="none"
  />
  <!-- Heart stays coral -->
  <path
    d="M180 38 C175.5 28.5 161 28.5 157.5 39 C154 49 164 56 180 68 C196 56 206 49 202.5 39 C199 28.5 184.5 28.5 180 38 Z"
    fill="#f4796b"
  />
</svg>
