<svg xmlns="http://www.w3.org/2000/svg" viewBox="0 0 320 160" fill="none" role="img" aria-label="mina">
  <!-- Speech bubble: outline only — interior is transparent -->
  <path
    d="M148 28h48a14 14 0 0 1 14 14v28a14 14 0 0 1-14 14h-18l-12 12v-12h-18a14 14 0 0 1-14-14V42a14 14 0 0 1 14-14z"
    stroke="#2a2f3a"
    stroke-width="5"
    stroke-linejoin="round"
    fill="none"
  />
  <path
    d="M178.5 48.2c3.6-3.5 9.4-3.5 13 0 3.5 3.6 3.5 9.4 0 13L178.5 74l-13-12.8c-3.5-3.6-3.5-9.4 0-13 3.6-3.5 9.4-3.5 13 0z"
    fill="#ff8b7e"
  />
  <text
    x="160"
    y="128"
    text-anchor="middle"
    fill="#2a2f3a"
    font-family="Segoe UI, Helvetica Neue, Arial, sans-serif"
    font-size="64"
    font-weight="700"
    letter-spacing="-0.02em"
  >mina</text>
</svg>
