<svg xmlns="http://www.w3.org/2000/svg" viewBox="0 0 520 120" fill="none" role="img" aria-label="Riftcast - Control from phone and browser">
  <defs>
    <linearGradient id="rcLock" x1="8" y1="6" x2="90" y2="110" gradientUnits="userSpaceOnUse">
      <stop stop-color="#FFFFFF"/>
      <stop offset="0.4" stop-color="#E8ECFF"/>
      <stop offset="1" stop-color="#B9A6FF"/>
    </linearGradient>
  </defs>

  <g transform="translate(4, 8) scale(1.55)">
    <path
      fill="url(#rcLock)"
      d="
        M 15.7 1.6
        C 27.5 2.2 39.5 2.6 46.0 5.4
        C 54.2 9.0 58.6 15.5 57.2 24.0
        C 56.2 31.5 51.6 37.0 44.5 40.2
        C 42.6 41.2 41.2 42.8 41.5 45.0
        L 60.8 64.2
        L 51.2 64.2
        L 21.0 34.3
        L 21.2 33.1
        C 29.0 32.6 37.2 32.2 42.2 30.2
        C 47.0 28.2 48.6 23.6 47.5 19.2
        C 46.6 15.4 42.8 13.4 38.4 13.4
        L 15.0 13.5
        C 11.2 13.4 8.0 11.6 6.2 8.8
        L 4.2 5.1
        L 5.9 3.7
        C 8.8 2.2 12.2 1.6 15.7 1.6
        Z
      "
    />
  </g>

  <text
    x="122"
    y="56"
    fill="#FFFFFF"
    font-family="Segoe UI, Helvetica Neue, Arial, sans-serif"
    font-size="40"
    font-weight="700"
    letter-spacing="0.2em"
  >RIFTCAST</text>
  <text
    x="122"
    y="84"
    fill="#9AA3B8"
    font-family="Segoe UI, Helvetica Neue, Arial, sans-serif"
    font-size="12.5"
    font-weight="500"
    letter-spacing="0.24em"
  >CONTROL FROM PHONE &amp; BROWSER</text>
</svg>
