<svg xmlns="http://www.w3.org/2000/svg" viewBox="0 0 128 128" fill="none" role="img" aria-label="Research">
  <defs>
    <linearGradient id="rs-a" x1="16" y1="110" x2="110" y2="18" gradientUnits="userSpaceOnUse">
      <stop offset="0" stop-color="#ac8bfd"/>
      <stop offset=".5" stop-color="#4a82fe"/>
      <stop offset="1" stop-color="#dcebff"/>
    </linearGradient>
    <linearGradient id="rs-b" x1="36" y1="24" x2="92" y2="96" gradientUnits="userSpaceOnUse">
      <stop offset="0" stop-color="#e8f0ff"/>
      <stop offset=".55" stop-color="#4a82fe"/>
      <stop offset="1" stop-color="#25417f"/>
    </linearGradient>
    <linearGradient id="rs-c" x1="48" y1="40" x2="80" y2="78" gradientUnits="userSpaceOnUse">
      <stop offset="0" stop-color="#c8daf4"/>
      <stop offset="1" stop-color="#3d72e8"/>
    </linearGradient>
  </defs>
  <!-- Faceted persona (interview / user) -->
  <polygon fill="url(#rs-a)" points="40 78 64 66 88 78 96 108 32 108"/>
  <polygon fill="#3154a5" points="40 78 64 66 64 92 32 108"/>
  <polygon fill="#ac8bfd" opacity=".75" points="64 66 88 78 96 108 64 92"/>
  <!-- Head -->
  <polygon fill="url(#rs-b)" points="64 22 82 40 64 60 46 40"/>
  <polygon fill="#e8f0ff" opacity=".65" points="64 22 82 40 64 40"/>
  <polygon fill="#4a82fe" opacity=".55" points="64 40 82 40 64 60"/>
  <!-- Direction needle (hypothesis / direction) -->
  <polygon fill="url(#rs-c)" points="92 18 118 28 104 34 118 48 96 40 102 54 86 32"/>
  <polygon fill="#dcebff" points="96 28 110 32 100 36 108 44 98 38 102 48 90 34"/>
</svg>
