<svg xmlns="http://www.w3.org/2000/svg" viewBox="0 0 128 128" fill="none" role="img" aria-label="Research">
  <defs>
    <linearGradient id="rs-a" x1="20" y1="108" x2="108" y2="20" gradientUnits="userSpaceOnUse">
      <stop offset="0" stop-color="#ac8bfd"/>
      <stop offset=".5" stop-color="#4a82fe"/>
      <stop offset="1" stop-color="#dcebff"/>
    </linearGradient>
    <linearGradient id="rs-b" x1="64" y1="16" x2="64" y2="112" gradientUnits="userSpaceOnUse">
      <stop offset="0" stop-color="#e8f0ff"/>
      <stop offset=".55" stop-color="#4a82fe"/>
      <stop offset="1" stop-color="#25417f"/>
    </linearGradient>
    <linearGradient id="rs-c" x1="40" y1="40" x2="88" y2="88" gradientUnits="userSpaceOnUse">
      <stop offset="0" stop-color="#c8daf4"/>
      <stop offset="1" stop-color="#3d72e8"/>
    </linearGradient>
  </defs>
  <!-- Faceted compass rose -->
  <polygon fill="url(#rs-a)" points="64 8 74 36 100 20 92 48 120 64 92 80 100 108 74 92 64 120 54 92 28 108 36 80 8 64 36 48 28 20 54 36"/>
  <polygon fill="url(#rs-b)" points="64 20 72 42 94 30 86 52 108 64 86 76 94 98 72 86 64 108 56 86 34 98 42 76 20 64 42 52 34 30 56 42"/>
  <!-- Cardinal blades -->
  <polygon fill="#dcebff" points="64 26 69 56 64 52 59 56"/>
  <polygon fill="#ac8bfd" points="102 64 72 59 76 64 72 69"/>
  <polygon fill="#3154a5" points="64 102 59 72 64 76 69 72"/>
  <polygon fill="#4a82fe" points="26 64 56 59 52 64 56 69"/>
  <!-- Core diamond -->
  <polygon fill="url(#rs-c)" points="64 48 76 64 64 80 52 64"/>
  <polygon fill="#e8f0ff" opacity=".7" points="64 48 76 64 64 64"/>
  <polygon fill="#ac8bfd" opacity=".55" points="64 64 76 64 64 80"/>
</svg>
