<svg xmlns="http://www.w3.org/2000/svg" viewBox="0 0 128 128" fill="none" role="img" aria-label="Concept">
  <defs>
    <linearGradient id="sy-a" x1="18" y1="112" x2="110" y2="16" gradientUnits="userSpaceOnUse">
      <stop offset="0" stop-color="#ac8bfd"/>
      <stop offset=".45" stop-color="#7d8ef5"/>
      <stop offset="1" stop-color="#4a82fe"/>
    </linearGradient>
    <linearGradient id="sy-b" x1="36" y1="28" x2="92" y2="100" gradientUnits="userSpaceOnUse">
      <stop offset="0" stop-color="#e8f0ff"/>
      <stop offset=".5" stop-color="#4a82fe"/>
      <stop offset="1" stop-color="#2c4d94"/>
    </linearGradient>
    <linearGradient id="sy-c" x1="70" y1="20" x2="118" y2="70" gradientUnits="userSpaceOnUse">
      <stop offset="0" stop-color="#dcebff"/>
      <stop offset="1" stop-color="#ac8bfd"/>
    </linearGradient>
  </defs>
  <!-- Wireframe artboard (faceted frame) -->
  <polygon fill="url(#sy-a)" points="18 16 78 10 86 96 26 102"/>
  <polygon fill="#25417f" points="26 102 86 96 80 112 20 118"/>
  <!-- Screen / wireframe grid -->
  <polygon fill="url(#sy-b)" points="28 26 72 22 78 86 34 90"/>
  <!-- Header bar -->
  <polygon fill="#ac8bfd" points="32 30 68 27 69 38 33 41"/>
  <!-- Content blocks (wireframe) -->
  <polygon fill="#6e9cff" opacity=".85" points="34 46 52 44 53 58 35 60"/>
  <polygon fill="#4a82fe" opacity=".8" points="56 43 70 41 71 58 57 60"/>
  <polygon fill="#3154a5" points="34 66 70 62 71 78 35 82"/>
  <!-- Clickflow nodes + connectors -->
  <polygon fill="url(#sy-c)" points="96 28 110 38 96 48 82 38"/>
  <polygon fill="#4a82fe" points="104 58 118 68 104 78 90 68"/>
  <polygon fill="#ac8bfd" points="96 88 110 98 96 108 82 98"/>
  <polygon fill="#8fb4ff" points="98 44 106 50 106 62 100 58"/>
  <polygon fill="#8fb4ff" points="98 74 106 80 106 92 100 88"/>
  <!-- Design-token chips -->
  <polygon fill="#dcebff" points="88 16 96 20 88 24 80 20"/>
  <polygon fill="#ac8bfd" points="112 48 120 52 112 56 104 52"/>
</svg>
