<svg xmlns="http://www.w3.org/2000/svg" viewBox="0 0 128 128" fill="none" role="img" aria-label="Validate">
  <defs>
    <linearGradient id="vd-a" x1="20" y1="100" x2="100" y2="20" gradientUnits="userSpaceOnUse">
      <stop offset="0" stop-color="#ac8bfd"/>
      <stop offset=".5" stop-color="#4a82fe"/>
      <stop offset="1" stop-color="#dcebff"/>
    </linearGradient>
    <linearGradient id="vd-b" x1="30" y1="24" x2="90" y2="108" gradientUnits="userSpaceOnUse">
      <stop offset="0" stop-color="#e8f0ff"/>
      <stop offset=".55" stop-color="#4a82fe"/>
      <stop offset="1" stop-color="#25417f"/>
    </linearGradient>
    <linearGradient id="vd-c" x1="48" y1="48" x2="100" y2="96" gradientUnits="userSpaceOnUse">
      <stop offset="0" stop-color="#f2f7ff"/>
      <stop offset="1" stop-color="#ac8bfd"/>
    </linearGradient>
  </defs>
  <!-- Hi-fi prototype device -->
  <polygon fill="url(#vd-a)" points="30 10 82 6 92 100 40 104"/>
  <polygon fill="#1a3570" points="40 104 92 100 86 118 34 122"/>
  <polygon fill="url(#vd-b)" points="38 20 78 16 86 90 46 94"/>
  <!-- UI chrome -->
  <polygon fill="#ac8bfd" opacity=".8" points="42 26 74 23 75 36 43 39"/>
  <polygon fill="#6e9cff" opacity=".7" points="44 44 60 42 61 58 45 60"/>
  <polygon fill="#4a82fe" opacity=".75" points="64 41 76 39 77 58 65 60"/>
  <polygon fill="#3154a5" points="44 66 76 62 77 80 45 84"/>
  <!-- Iteration arc (test → refine) -->
  <polygon fill="#7d8ef5" points="100 28 114 36 108 42 118 52 104 46 110 60 96 40"/>
  <polygon fill="#dcebff" points="102 36 110 40 106 44 112 50 104 46 108 54 98 42"/>
  <!-- Usability check -->
  <polygon fill="url(#vd-c)" points="54 72 66 86 98 48 88 40 66 70 58 62"/>
</svg>
