<svg xmlns="http://www.w3.org/2000/svg" viewBox="0 0 128 128" fill="none" role="img" aria-label="Validate">
  <defs>
    <linearGradient id="vd-a" x1="20" y1="96" x2="110" y2="28" gradientUnits="userSpaceOnUse">
      <stop offset="0" stop-color="#ac8bfd"/>
      <stop offset=".5" stop-color="#4a82fe"/>
      <stop offset="1" stop-color="#dcebff"/>
    </linearGradient>
    <linearGradient id="vd-b" x1="24" y1="36" x2="100" y2="104" gradientUnits="userSpaceOnUse">
      <stop offset="0" stop-color="#e8f0ff"/>
      <stop offset=".55" stop-color="#4a82fe"/>
      <stop offset="1" stop-color="#25417f"/>
    </linearGradient>
    <linearGradient id="vd-c" x1="30" y1="48" x2="92" y2="108" gradientUnits="userSpaceOnUse">
      <stop offset="0" stop-color="#c8daf4"/>
      <stop offset="1" stop-color="#365fc0"/>
    </linearGradient>
    <linearGradient id="vd-mark" x1="46" y1="56" x2="86" y2="90" gradientUnits="userSpaceOnUse">
      <stop offset="0" stop-color="#f2f7ff"/>
      <stop offset="1" stop-color="#ac8bfd"/>
    </linearGradient>
  </defs>
  <!-- Back slab -->
  <polygon fill="url(#vd-a)" points="40 22 100 14 112 68 52 76"/>
  <polygon fill="#3154a5" points="52 76 112 68 102 90 42 98"/>
  <!-- Mid slab -->
  <polygon fill="url(#vd-b)" points="28 38 88 30 100 84 40 92"/>
  <polygon fill="#25417f" points="40 92 100 84 90 106 30 114"/>
  <!-- Front slab -->
  <polygon fill="#6e9cff" points="18 54 78 46 56 72"/>
  <polygon fill="url(#vd-c)" points="18 54 56 72 30 108"/>
  <polygon fill="#ac8bfd" points="78 46 90 100 56 72"/>
  <polygon fill="#2f59b8" points="56 72 90 100 30 108"/>
  <!-- Faceted check -->
  <polygon fill="url(#vd-mark)" points="42 80 54 92 82 58 72 50 54 76 48 70"/>
</svg>
